<svg width="482" height="389" viewBox="0 0 482 389" fill="none" xmlns="http://www.w3.org/2000/svg">
<path d="M295.909 293.806C298.79 292.315 302.425 291.463 306.497 292.315L307.051 292.441L308.378 292.766L309.705 293.092C311.706 293.583 313.548 294.336 315.22 295.248L315.926 295.648L317.258 296.432L318.59 297.215C320.615 298.406 324.57 301.38 325.654 307.045C326.71 312.568 324.284 316.72 322.82 318.648C322.842 319.293 322.865 319.939 322.885 320.584L322.927 321.926L322.97 323.268C322.979 323.53 323.007 323.823 323.063 324.149L323.297 325.514L323.533 326.879C324.669 333.479 321.503 338.609 318.276 341.517L316.974 342.69L316.229 343.361L315.765 344.289C314.286 347.247 311.405 350.457 306.812 351.769C302.959 352.869 299.637 352.117 297.681 351.429C294.8 352.288 292.02 352.263 289.519 351.69C286.677 353.43 282.937 354.584 278.519 353.785L275.826 353.299C275.544 353.248 275.29 353.223 275.061 353.215L273.729 353.17L272.396 353.125C272.328 353.123 272.268 353.127 272.206 353.137L270.89 353.339L269.576 353.541C269.026 353.626 268.484 353.68 267.949 353.711C268.217 355.176 268.295 356.734 268.115 358.35C270.069 358.606 271.785 359.232 273.221 359.989C275.692 358.223 278.963 356.77 282.913 356.67L284.238 356.637L285.564 356.604L285.948 356.599C289.32 356.589 292.259 357.57 294.636 358.888C295.803 358.618 296.997 358.431 298.213 358.335L299.536 358.231L300.859 358.126C302.414 358.004 303.971 358 305.523 358.113L306.86 358.211L308.196 358.308C308.691 358.344 309.187 358.369 309.681 358.39L309.775 358.32C310.127 358.057 311.59 356.937 313.416 356.156C313.96 355.924 315.079 355.482 316.554 355.235C317.762 355.032 321.174 354.61 324.905 356.536C329.554 358.937 331.533 363.24 331.989 366.571C332.36 369.286 331.794 371.408 331.561 372.199L331.424 372.663L331.231 373.32L331.229 373.324C330.983 374.227 330.638 375.117 330.188 375.981C328.236 379.724 324.748 382.145 320.9 382.877C318.461 384.21 315.518 385.094 312.189 384.998L310.855 384.96L309.52 384.921C308.436 384.89 307.352 384.835 306.269 384.756L304.933 384.658L303.596 384.561C303.367 384.544 303.15 384.545 302.942 384.562L301.62 384.666L300.551 384.75L299.437 385.115L298.127 385.544C293.271 387.134 288.709 386.178 285.229 384.275C283.18 385.707 280.64 386.926 277.623 387.425L276.304 387.643L274.986 387.861C272.011 388.352 269.31 387.973 266.99 387.161C265.767 387.729 264.376 388.185 262.81 388.414C258.734 389.011 255.193 387.853 252.632 386.288L251.27 385.456L250.6 385.046C246.1 384.053 243.352 381.175 241.979 379.176C240.626 377.206 239.99 375.263 239.67 374.088L239.296 372.712L238.922 371.337C237.943 367.737 238.093 363.885 239.556 360.251L240.071 358.975L240.584 357.697C240.62 357.609 240.654 357.521 240.689 357.433C239.77 355.509 239.071 353.1 239.127 350.319C239.197 346.866 240.409 343.908 242.015 341.64L242.328 341.198C242.594 334.93 246.388 330.439 250.628 328.169L251.909 327.484L253.19 326.798L253.659 326.556C258.368 324.223 263.485 324.468 267.745 326.508L268.167 326.718L268.488 326.882C270.077 326.656 271.678 326.569 273.282 326.622L274.614 326.667L275.947 326.712C276.48 326.73 277.012 326.761 277.541 326.806C279.262 325.327 281.702 323.843 284.904 323.278C288.591 322.627 291.853 323.444 294.344 324.695C295.056 324.545 295.768 324.442 296.477 324.385C296.473 324.294 296.469 324.203 296.466 324.112L296.423 322.771L296.402 322.121C293.77 322.007 291.409 321.217 289.475 320.13L288.139 319.379L287.957 319.277L287.2 319.552C284.929 320.375 282.485 320.835 279.933 320.817L278.607 320.807L277.282 320.797C274.752 320.779 272.343 320.294 270.115 319.469L269.661 319.3L269.642 319.304L268.431 319.877L267.098 320.508C265.435 321.294 261.121 323.127 255.949 321.77L254.378 321.358C253.835 321.215 251.853 320.691 249.792 319.19C248.67 318.371 246.915 316.823 245.667 314.28C244.285 311.462 243.955 308.278 244.679 305.285C245.87 300.362 249.373 297.932 249.893 297.558C250.989 296.769 251.977 296.309 252.427 296.109C254.028 295.396 255.782 294.981 256.57 294.795L257.695 294.53C259.253 293.969 260.895 293.708 262.532 293.748C263.052 293.605 263.58 293.476 264.118 293.367L265.442 293.099L266.765 292.83C269.98 292.178 273.161 292.437 276.082 293.411L276.664 293.615L277.995 294.109L278.477 294.288L278.801 294.29L279.072 294.292L279.48 294.144L280.802 293.664L281.322 293.485C283.758 292.677 286.373 292.344 289.055 292.598L289.631 292.661L290.96 292.829L292.29 292.996C293.558 293.156 294.765 293.436 295.909 293.806ZM393.665 289.764C398.802 289.276 402.997 291.305 405.783 293.548L407.109 294.615L407.146 294.647L407.469 294.705C409.469 295.074 417.328 297.208 418.811 306.031C419.386 309.451 418.542 312.213 417.923 313.717C417.279 315.282 416.472 316.469 415.915 317.21L415.895 317.236L416.241 318.291C417.403 321.836 417.449 325.691 416.173 329.395L415.725 330.696L415.277 331.997C415.246 332.086 415.217 332.176 415.187 332.265C416.203 334.14 417.024 336.511 417.11 339.292C417.216 342.743 416.158 345.759 414.669 348.107L414.449 348.453L414.863 349.549C416.861 354.848 415.855 360.267 412.988 364.409L412.782 364.706C412.798 366.311 412.677 367.91 412.415 369.492L412.197 370.808L411.978 372.123C411.795 373.227 410.864 378.809 405.343 382.143C402.481 383.871 399.713 384.278 397.352 384.102C395.65 385.167 393.473 386.091 390.832 386.365C387.108 386.752 383.912 385.703 381.516 384.277C379.59 384.541 377.69 384.464 375.873 384.099C373.889 385.264 371.311 386.202 368.208 386.193C364.694 386.181 361.864 384.957 359.812 383.576C359.338 383.673 358.86 383.761 358.38 383.836L357.054 384.045L355.729 384.254C354.858 384.391 353.985 384.529 353.114 384.669L350.461 385.095C349.338 385.275 345.27 385.889 341.035 383.577C338.519 382.204 336.339 379.994 335.045 377.083C333.844 374.379 333.759 371.873 333.901 370.202L333.936 369.785L333.807 369.292L333.456 367.945C332.818 365.505 332.692 362.977 333.1 360.484C331.985 358.633 331.012 356.212 330.843 353.293C330.63 349.61 331.767 346.406 333.358 343.969L334.196 342.687L334.299 342.529L334.08 341.777C333.405 339.46 333.104 336.996 333.285 334.456L333.378 333.133L333.473 331.811L333.511 331.34C333.732 328.999 334.344 326.79 335.246 324.757L335.425 324.353L334.954 323.203L334.397 321.846C332.451 317.102 332.858 311.955 335.329 307.628C335.207 306.73 335.049 305.32 335.104 303.941L335.123 303.457L335.143 302.975C335.283 299.473 336.793 295.958 339.674 293.397C342.156 291.191 344.789 290.46 346.184 290.187C348.497 289.733 350.524 289.952 351.531 290.102L351.897 290.159L353.223 290.379L354.549 290.598C355.166 290.7 355.781 290.781 356.391 290.844L357.717 290.981L359.043 291.116C360.061 291.221 361.078 291.34 362.094 291.476L363.42 291.653L364.746 291.828C364.94 291.854 365.124 291.864 365.301 291.86L366.627 291.824L367.663 291.798L368.756 291.496L370.082 291.131L370.593 290.999C375.292 289.864 379.583 291.006 382.838 292.972C384.932 291.636 387.502 290.531 390.512 290.153L391.838 289.986L393.165 289.82L393.665 289.764ZM208.829 172.366C217.13 172.366 224.005 178.469 225.213 186.433L225.731 188.937C226.327 191.825 227.047 196.987 225.094 202.396C225.629 203.801 226.071 205.264 226.396 206.781L226.495 207.262L226.821 208.921L227.148 210.58C227.995 214.882 227.539 219.13 226.08 222.979L225.45 224.64L225.215 225.257L225.208 225.677L225.203 226.018L225.382 226.529L225.963 228.187C227.18 231.65 227.628 235.41 227.098 239.254L226.87 240.912L226.641 242.57C226.423 244.155 226.055 245.664 225.575 247.089C227.478 250.887 228.484 255.696 227.101 261.041L227.013 261.377L227.145 261.788C229.085 267.858 227.96 273.783 225.248 278.442C225.376 279.24 225.504 280.039 225.629 280.838L225.89 282.497L226.152 284.155C226.203 284.481 226.283 284.84 226.403 285.237L226.907 286.895L227.41 288.553C228.915 293.515 228.285 298.032 226.744 301.729C227.145 302.751 227.484 303.856 227.72 305.047C228.534 309.141 227.941 313.084 226.483 316.452C227.301 320.125 227.022 323.595 226.081 326.67C227.996 330.363 229.111 335.133 227.712 340.585L227.289 342.236L226.866 343.885C226.781 344.216 226.728 344.522 226.698 344.807L226.523 346.468L226.406 347.58L226.453 347.862C226.581 348.646 227.095 351.714 226.144 355.349C225.609 357.393 224.315 360.748 221.11 363.631C217.61 366.779 213.431 367.935 209.88 367.935H208.354L208.281 367.924C199.381 367.635 192.255 360.33 192.255 351.361V336.598C191.29 334.724 190.516 332.484 190.247 329.883C189.764 325.231 191.071 321.236 192.857 318.237C192.527 315.829 192.622 313.453 193.079 311.179C191.621 308.699 190.449 305.477 190.461 301.6C190.476 297.205 192.008 293.668 193.734 291.104C193.612 290.509 193.502 289.911 193.408 289.309L193.146 287.651L192.885 285.992C192.714 284.902 192.54 283.812 192.366 282.722L191.834 279.405C191.052 274.524 192.063 270.042 193.928 266.36C193.434 264.037 193.306 261.653 193.565 259.274C192.048 257.039 190.67 254.082 190.262 250.449C189.747 245.869 190.949 241.793 192.77 238.644L193.729 236.986L193.849 236.778L193.525 235.856C192.526 233.011 191.984 229.956 192.038 226.772L192.066 225.116L192.093 223.46L192.111 222.871C192.228 219.934 192.843 217.14 193.827 214.547L194.031 214.011L193.369 212.621L192.581 210.968C189.819 205.164 189.995 198.72 192.76 193.177L192.597 192.392L192.255 190.734V188.94C192.255 179.786 199.675 172.367 208.829 172.366ZM372.315 317.919C371.113 318.137 369.888 318.267 368.645 318.299L367.319 318.333L365.993 318.368C364.402 318.41 362.817 318.324 361.245 318.114L361.218 318.111C361.397 318.848 361.543 319.601 361.652 320.369L361.841 321.707L362.031 323.046C362.522 326.52 361.975 329.897 360.638 332.911L360.063 334.208L359.853 334.681L359.83 335.013L359.809 335.288L359.932 335.707L360.325 337.056C361.146 339.874 361.342 342.897 360.752 345.945L360.245 348.574C360.002 349.83 359.642 351.017 359.198 352.134C359.723 353.341 360.134 354.664 360.363 356.076C363.316 355.692 366.014 356.208 368.314 357.167C369.132 356.846 370.018 356.575 370.971 356.386C374.243 355.736 377.394 356.208 380.089 357.374C382.474 356.844 384.75 356.893 386.836 357.332C387.194 356.051 387.687 354.855 388.271 353.755C387.865 352.098 387.652 350.348 387.693 348.53L387.722 347.204L387.752 345.878L387.78 345.203C387.895 343.284 388.317 341.493 388.945 339.856C387.695 336.781 387.204 333.041 388.417 329.044L388.814 327.739L389.209 326.435C389.49 325.511 389.789 324.59 390.101 323.672C389.715 322.463 389.426 321.205 389.257 319.909C387.656 320.406 385.89 320.696 383.979 320.663L382.654 320.641L381.328 320.617C377.771 320.556 374.729 319.407 372.315 317.919ZM193.706 353.011L193.74 353.209L193.703 352.981C193.704 352.991 193.705 353.001 193.706 353.011ZM117.244 193.855C121.419 193.369 125.293 194.155 128.613 195.644C131.94 194.742 135.492 194.601 139.051 195.38L139.48 195.479L142.794 196.274C143.191 196.369 143.535 196.424 143.829 196.452L145.454 196.612L147.08 196.771C150.175 197.074 155.848 198.445 159.912 203.905C163.889 209.251 163.639 214.934 163.168 217.782L162.894 219.44L162.621 221.097C162.493 221.868 162.39 222.636 162.312 223.4L162.143 225.057L161.973 226.715C161.843 227.987 161.693 229.258 161.524 230.529L161.302 232.186L161.081 233.843C161.049 234.087 161.038 234.316 161.043 234.537L161.087 236.195L161.121 237.49L161.498 238.857L161.954 240.514C163.64 246.637 162.2 252.242 159.654 256.459C161.261 258.978 162.6 262.047 163.12 265.627L163.177 266.052L163.385 267.709L163.594 269.366C164.061 273.085 163.465 276.424 162.35 279.274C162.999 280.818 163.499 282.569 163.715 284.524C164.282 289.646 162.678 294.027 160.598 297.164L160.576 297.197L161.086 298.488C162.8 302.825 163.145 307.631 161.829 312.348L160.903 315.662C160.649 316.572 160.414 317.481 160.198 318.385L159.84 319.874L160.093 321.188L160.559 323.603C160.768 324.684 161.035 326.439 160.939 328.515C160.856 330.301 160.42 334.526 157.256 338.563C153.368 343.524 147.807 345.218 143.318 345.096C139.639 344.996 136.874 343.747 135.646 343.133L135.187 342.904L133.877 343.557C127.541 346.714 120.675 346.15 115.161 343.11L114.765 342.892C112.772 343.116 110.769 343.168 108.767 343.042L107.104 342.938L105.44 342.833C104.774 342.791 104.11 342.731 103.45 342.655C101.245 344.441 98.1444 346.208 94.1225 346.797C89.4911 347.475 85.4449 346.334 82.3774 344.679C78.2082 345.43 74.0837 344.888 70.394 343.372L68.7065 342.678L67.018 341.985C65.4762 341.351 63.3203 340.376 61.2739 338.944L60.4233 338.349L59.5737 337.754C56.9331 335.905 54.3487 332.986 53.0317 328.927C51.7699 325.037 52.1386 321.541 52.7543 319.162C53.4321 316.544 54.6165 314.452 55.6323 312.993C55.5146 312.413 55.4073 311.83 55.3149 311.243L55.0542 309.586L54.7924 307.929C54.6209 306.84 54.4476 305.75 54.2729 304.66L54.0073 303.002L53.7417 301.345C52.959 296.463 53.9699 291.982 55.8344 288.3C55.3406 285.979 55.214 283.598 55.4721 281.22C53.9552 278.985 52.5777 276.029 52.1694 272.398C51.6543 267.815 52.8578 263.739 54.6792 260.59L55.6381 258.933L55.7563 258.729L55.4321 257.805C54.4331 254.959 53.891 251.903 53.9448 248.72L53.9731 247.063L54.0004 245.405L54.018 244.817C54.135 241.879 54.7497 239.081 55.7377 236.482L55.935 235.965L55.268 234.563L54.4809 232.905C51.818 227.296 51.8854 221.065 54.4311 215.619C54.2268 214.471 54.1625 213.442 54.1625 212.603V211.455C54.1625 211.2 54.1605 210.224 54.3325 209.014C54.4017 208.527 54.6318 206.963 55.3833 205.105C55.5858 204.604 58.4947 196.787 67.6284 195.031C70.366 194.505 72.7812 194.68 74.8471 195.212L76.4936 194.933L77.3657 194.797C79.1131 194.55 80.879 194.45 82.6528 194.502L83.5405 194.541L85.1977 194.637L86.8549 194.734C88.195 194.811 89.5348 194.917 90.8725 195.052L94.187 195.386C95.2627 195.494 96.3388 195.601 97.4145 195.703L99.0727 195.862L99.6303 195.915L100.254 195.765L101.912 195.366L102.774 195.172C104.79 194.746 106.853 194.514 108.948 194.495L110.605 194.481L112.263 194.465C112.648 194.462 113.041 194.433 113.446 194.377L116.76 193.916L117.244 193.855ZM117.449 227.281C115.829 227.485 114.199 227.596 112.564 227.611L110.907 227.626L109.481 227.638L107.998 227.994L106.341 228.393C103.498 229.076 100.552 229.301 97.5795 229.017L94.2651 228.7C93.1315 228.592 91.9973 228.481 90.8637 228.366L89.2065 228.199L88.1547 228.093C88.2061 228.308 88.2555 228.526 88.3022 228.743L88.4008 229.223L88.728 230.88L89.0542 232.537C89.902 236.84 89.4466 241.092 87.9819 244.945L87.352 246.603L87.1225 247.206L87.1157 247.623L87.1088 247.97L87.2895 248.483L87.8715 250.14C89.087 253.602 89.5352 257.362 89.0053 261.207L88.5483 264.522C88.33 266.106 87.9621 267.612 87.4829 269.036C89.3859 272.834 90.3917 277.642 89.0083 282.987L88.9213 283.32L89.0522 283.73C90.9926 289.799 89.8674 295.723 87.1557 300.381C87.2828 301.178 87.4111 301.975 87.5366 302.772L87.7973 304.429L88.0581 306.087C88.1091 306.411 88.19 306.769 88.31 307.164L88.8129 308.822L89.3159 310.48C89.3764 310.679 89.4311 310.879 89.4848 311.076C92.9177 309.132 97.3305 307.885 102.451 308.766L103.214 308.912L104.888 309.265L106.562 309.618C106.912 309.692 107.228 309.733 107.514 309.751L109.177 309.856L110.841 309.959C110.926 309.964 111.002 309.962 111.08 309.952L114.38 309.544L114.859 309.49C118.69 309.102 122.222 309.782 125.273 311.023C126.179 310.7 127.113 310.424 128.074 310.202C128.323 309.182 128.588 308.163 128.868 307.146C127.833 304.463 127.19 301.56 127.088 298.497L127.034 296.839L126.979 295.182C126.891 292.513 127.304 290.041 128.031 287.809C127.027 285.742 126.274 283.257 126.16 280.376C125.997 276.28 127.181 272.843 128.703 270.21C126.611 267.024 124.952 262.846 125.039 257.885L125.067 256.228L125.096 254.57L125.11 254.089C125.278 249.85 126.676 246.212 128.468 243.305C128.196 241.803 128.035 240.271 127.995 238.717L127.952 237.06L127.908 235.403C127.861 233.595 127.946 231.793 128.159 230.004C124.394 230.104 120.747 229.133 117.561 227.345L117.449 227.281ZM325.991 270.032C332.116 270.032 337.081 274.998 337.081 281.123C337.081 287.249 332.116 292.214 325.991 292.214C319.865 292.214 314.9 287.248 314.9 281.123C314.9 274.998 319.866 270.033 325.991 270.032ZM177.947 262.639C184.072 262.639 189.038 267.604 189.038 273.73C189.038 279.855 184.072 284.82 177.947 284.82C171.822 284.82 166.856 279.855 166.856 273.73C166.856 267.604 171.822 262.639 177.947 262.639ZM378.085 236.701C381.195 235.003 385.184 233.944 389.776 234.83L390.455 234.975L391.941 235.32L393.428 235.665C393.739 235.737 394.02 235.78 394.275 235.801L395.757 235.924L397.239 236.047C397.315 236.053 397.382 236.052 397.452 236.045L398.928 235.893L400.404 235.74L401.109 235.676C401.962 235.61 403.227 235.562 404.612 235.71C405.397 235.794 407.624 236.066 410.093 237.339C412.896 238.784 417.825 242.686 418.184 249.872L418.2 250.185L418.259 251.362L418.248 251.461C418.297 259.52 411.871 266.155 403.785 266.332L403.684 266.334L387.607 266.684C385.954 267.582 383.972 268.315 381.659 268.607C377.514 269.128 373.925 268.037 371.218 266.505C369.077 266.846 366.956 266.808 364.921 266.445C362.738 267.792 359.887 268.901 356.427 268.965C352.508 269.038 349.322 267.741 347 266.251C346.474 266.371 345.945 266.48 345.412 266.576L343.938 266.841L342.464 267.107C341.496 267.281 340.527 267.457 339.558 267.634L338.085 267.903L336.612 268.172C332.272 268.965 328.256 268.15 324.936 266.559C322.875 267.045 320.752 267.205 318.625 267.021C316.662 268.417 314.051 269.703 310.82 270.138C306.742 270.687 303.082 269.693 300.238 268.129L298.741 267.306L298.556 267.204L297.739 267.512C295.22 268.458 292.505 269.001 289.665 269.015L288.185 269.023L286.706 269.029C283.893 269.043 281.206 268.54 278.712 267.654L278.248 267.488L277.009 268.11L275.546 268.844C270.446 271.403 264.7 271.391 259.687 269.024L258.982 269.186L257.512 269.522L256.006 269.555L255.906 269.557C247.741 269.735 240.977 263.26 240.799 255.095C240.638 247.676 245.969 241.414 253.071 240.198L255.279 239.694C257.826 239.111 262.423 238.362 267.291 240C268.664 239.444 270.101 238.987 271.601 238.657L273.074 238.334L274.545 238.011L275.261 237.866C278.602 237.258 281.913 237.528 284.981 238.505L285.634 238.726L287.125 239.255L287.668 239.448L288.04 239.446L288.349 239.445L288.804 239.275L290.271 238.723L290.849 238.516C293.754 237.517 296.896 237.123 300.121 237.496L301.604 237.668L303.086 237.84C304.504 238.004 305.855 238.302 307.135 238.701C310.341 237.007 314.388 236.027 318.93 236.936L319.548 237.07L319.848 237.141L320.211 237.017L320.722 236.849C325.923 235.225 331.028 236.128 335.103 238.383C335.811 238.254 336.519 238.126 337.227 237.998L338.701 237.734L340.174 237.468C340.462 237.416 340.78 237.338 341.13 237.223L342.599 236.742L344.068 236.261L344.731 236.057C348.873 234.87 352.678 235.36 355.837 236.598C356.742 236.219 357.724 235.897 358.783 235.662C362.415 234.858 365.941 235.306 368.975 236.541C372.233 235.742 375.33 235.924 378.085 236.701ZM332.604 146.604C335.738 145.475 339.233 145.232 342.702 146.129C346.178 147.029 348.76 148.843 350.497 150.443L350.77 150.695C351.051 150.69 351.332 150.68 351.613 150.667L353.092 150.598L354.571 150.529C355.629 150.479 356.687 150.437 357.746 150.403L359.225 150.355L359.995 150.33L360.877 150.031L362.356 149.53C363.873 149.017 365.419 148.591 366.99 148.258L368.469 147.945L369.948 147.632L370.354 147.551C374.281 146.806 378.096 147.331 381.458 148.73L382.147 149.031L383.626 149.712L385.105 150.392C387.193 151.352 392.109 153.981 394.444 159.888L394.662 160.47L394.976 161.361L395.29 162.25C396.135 164.641 396.385 166.929 396.451 168.654L396.469 169.357L396.491 170.856L396.512 172.356C396.569 176.378 395.413 180.081 393.476 183.212L392.631 184.578L391.951 185.676L391.788 186.208L391.986 187.362C392.688 191.471 391.976 195.411 390.268 198.8C390.863 201.148 391.102 203.724 390.764 206.441L390.399 209.376C390.151 211.366 389.686 213.341 389.168 215.159L388.573 217.254L387.977 219.348C387.633 220.557 385.68 227.562 378.122 230.392C372.386 232.539 367.639 230.881 364.727 229.195C363.109 229.577 361.401 229.78 359.622 229.753L358.143 229.731L356.665 229.707C356.372 229.703 356.073 229.719 355.765 229.757L352.808 230.126C349.198 230.577 345.891 229.944 343.062 228.747C339.017 230.07 334.524 229.984 330.263 228.12L329.863 227.945L329.771 227.961C327.457 228.351 325.107 228.423 322.76 228.168L321.282 228.008L320.512 227.924L319.714 228.075L318.236 228.355C314.964 228.974 311.672 228.809 308.539 227.931L307.06 227.517L306.675 227.408L306.007 227.86C301.563 230.857 295.495 232.185 289.371 229.777L287.892 229.195L286.413 228.613C285.596 228.292 284.783 227.99 283.973 227.706L281.016 226.669C279.277 226.059 277.188 225.159 275.162 223.77L274.254 223.149L273.348 222.527C271.43 221.211 269.084 218.97 267.685 215.495C266.248 211.924 266.381 208.466 267.077 205.797C267.861 202.787 269.402 200.547 270.61 199.132C270.547 198.354 270.513 197.571 270.511 196.783L270.508 195.298L270.504 193.814C270.502 192.662 270.518 191.511 270.553 190.362L270.643 187.401L270.661 186.956C270.761 184.869 271.12 182.826 271.71 180.852C270.602 177.673 270.184 174.113 270.839 170.42L271.098 168.959L271.357 167.497C271.609 166.074 271.928 164.664 272.309 163.269L272.706 161.819L273.102 160.369C273.237 159.876 273.406 159.267 273.576 158.737C273.623 158.589 273.697 158.364 273.79 158.104C273.849 157.94 274.064 157.341 274.408 156.625C274.542 156.346 274.994 155.41 275.769 154.339C276.137 153.831 276.99 152.707 278.366 151.577C279.493 150.651 282.786 148.215 287.754 148.217C290.611 147.579 293.212 147.716 295.161 148.006L295.607 148.076L297.085 148.325L298.565 148.573C299.337 148.703 300.108 148.819 300.877 148.922L301.215 148.749L301.748 148.487C306.887 146.064 312.539 146.289 317.338 148.706C319.079 148.33 320.874 148.138 322.703 148.157L323.19 148.167L326.147 148.259C326.36 148.266 326.578 148.256 326.808 148.228L328.288 148.042L329.331 147.911L330.502 147.439L331.982 146.841L332.604 146.604ZM335.765 176.8C335.004 176.967 334.23 177.105 333.443 177.203L331.963 177.388L330.485 177.573C328.743 177.792 326.989 177.875 325.231 177.82L323.752 177.775L323.141 177.755L322.438 177.961L320.959 178.393C316.671 179.644 312.503 179.214 308.928 177.771C306.709 178.521 304.286 178.914 301.735 178.795C301.983 181.294 301.754 183.896 300.939 186.483L300.484 187.927L300.188 188.865L300.16 189.782L300.115 191.263C300.09 192.087 300.078 192.914 300.08 193.742L300.083 195.228L300.087 196.712C300.087 196.72 300.088 196.774 300.11 196.886L300.345 198.083C301.279 197.916 302.25 197.812 303.257 197.785L304.736 197.745L306.215 197.705L306.687 197.697C308.887 197.681 311.041 197.962 313.115 198.503L313.558 198.623L314.659 198.931L315.692 198.736L316.142 198.654C318.249 198.295 320.391 198.206 322.538 198.399L322.998 198.445L324.476 198.606L325.397 198.705L326.338 198.547L327.817 198.298L328.572 198.186C331.462 197.812 334.265 198.101 336.857 198.885C338.971 198.018 341.419 197.483 344.105 197.578C347.63 197.703 350.617 198.878 352.914 200.319C354.309 200.176 355.712 200.113 357.118 200.135L358.042 200.15L359.318 199.531C359.389 199.497 359.463 199.465 359.535 199.431C359.023 195.454 359.851 191.366 362.106 187.771C361.843 185.143 362.059 182.45 362.826 179.8C362.438 179.831 362.049 179.855 361.657 179.867L360.177 179.915L358.699 179.963C357.786 179.993 356.872 180.029 355.958 180.071L353.001 180.21C351.699 180.271 350.395 180.29 349.092 180.268L347.613 180.242L346.134 180.217C341.852 180.142 338.372 178.604 335.765 176.8ZM266.627 61.133C269.25 56.1206 275.122 53.9124 280.306 55.7346L281.924 56.1955C283.843 56.7429 287.173 57.9324 289.811 60.8088C290.717 60.9171 291.628 61.0833 292.537 61.3195L293.174 61.4963L294.274 61.8215L295.373 62.1467C298.047 62.9377 300.335 64.4033 302.14 66.3078L302.495 66.6945L303.292 67.5939L303.584 67.923L303.831 68.0578L304.038 68.1701L304.404 68.2238L305.582 68.3947C308.046 68.7532 310.447 69.6665 312.592 71.1945L313.517 71.8537L314.442 72.5119C315.325 73.1412 316.115 73.8366 316.82 74.5724C319.577 74.6208 322.632 75.4538 325.324 77.7267L325.686 78.0441L325.859 78.2004L326.147 78.2512C330.406 78.9937 333.614 81.533 335.561 84.6281C336.08 84.8024 336.599 84.9773 337.118 85.1525L338.197 85.5168L339.275 85.881C339.486 85.9523 339.726 86.0173 340.001 86.0695L341.157 86.2883L342.311 86.507C345.77 87.1625 348.288 88.9638 350.025 91.0539C350.766 91.1339 351.538 91.2783 352.33 91.5109C355.044 92.309 357.226 93.9029 358.793 95.8391C361.257 96.5031 363.252 97.761 364.801 99.2902C367.496 99.3004 370.541 100.06 373.274 102.336L373.673 102.682L374.537 103.457L375.399 104.234C375.58 104.396 375.752 104.527 375.914 104.635L377.796 105.887C377.845 105.919 377.891 105.943 377.94 105.964L378.978 106.404L380.017 106.845C382.545 107.917 384.486 109.575 385.914 111.413C387.203 111.651 388.496 112.037 389.763 112.601L390.157 112.782L392.188 113.751C393.854 114.545 395.261 115.59 396.431 116.768C399.126 116.866 402.051 117.716 404.639 119.834L404.978 120.12L405.849 120.88L406.721 121.64C407.338 122.178 407.945 122.729 408.546 123.289C410.361 123.496 412.185 123.971 413.948 124.772L414.309 124.941L415.323 125.429L416.335 125.918C417.968 126.705 419.324 127.731 420.438 128.871C421.996 128.918 423.727 129.246 425.495 130.083C428.007 131.274 429.699 133.066 430.803 134.809C433.287 134.562 436.198 134.849 439.055 136.318L439.368 136.484L440.355 137.023L441.342 137.561C443.99 139.006 445.824 141.065 447.053 143.132C447.844 143.379 448.623 143.675 449.388 144.021L449.961 144.29L450.971 144.785L451.981 145.281C453.192 145.876 454.35 146.563 455.45 147.339L456.376 147.992L457.303 148.647C457.828 149.017 458.359 149.379 458.892 149.732L459.834 150.356L460.778 150.979C461.336 151.348 461.886 151.73 462.429 152.122C465.433 151.902 468.808 152.561 471.768 154.704C472.93 154.831 474.826 155.214 476.777 156.47C479.95 158.513 481.867 161.958 481.994 165.654C482.092 168.529 481.083 170.638 480.664 171.44L480.432 171.882L480.171 172.38L480.123 172.453C480.072 172.557 480.023 172.663 479.969 172.766C477.09 178.268 470.295 180.395 464.792 177.516L464.704 177.469L459.709 174.856C457.019 174.787 454.106 173.998 451.482 172.021L450.572 171.335L449.662 170.649C449.238 170.329 448.809 170.026 448.374 169.739L447.431 169.116L446.489 168.492C445.765 168.014 445.047 167.524 444.336 167.023L442.483 165.714C442.347 165.618 442.212 165.539 442.078 165.473L441.068 164.978L440.278 164.59L439.338 164.387L438.199 164.14C433.987 163.227 431.069 160.599 429.335 157.741C427.237 157.922 424.872 157.742 422.461 156.843L421.4 156.446L420.337 156.05C417.954 155.16 416.133 153.751 414.771 152.184C413.639 152.088 412.429 151.84 411.187 151.356C407.929 150.085 405.801 147.743 404.569 145.505L404.555 145.482L403.62 145.382C400.473 145.048 397.476 143.743 395.054 141.468L394.203 140.669L393.352 139.869C393.294 139.814 393.234 139.761 393.175 139.706C391.372 139.84 389.253 139.651 387.073 138.75C384.366 137.632 382.401 135.765 381.103 133.797L380.911 133.505L379.919 133.445C375.126 133.147 371.283 130.485 369.077 126.826L368.917 126.564C367.671 126.018 366.477 125.369 365.344 124.615L363.461 123.363C363.084 123.113 362.714 122.852 362.352 122.583C360.451 122.883 358.029 122.868 355.467 121.849C352.515 120.674 350.524 118.627 349.285 116.612C347.735 116.054 346.339 115.252 345.119 114.264C343.169 114.36 340.862 114.051 338.534 112.823C335.897 111.433 334.252 109.399 333.252 107.555C332.858 107.441 332.465 107.32 332.075 107.188L329.918 106.459C329.209 106.22 328.499 105.981 327.79 105.743L326.709 105.381L325.629 105.02C322.449 103.955 320.075 101.938 318.448 99.6594C316.896 99.2262 315.423 98.5534 314.074 97.6496C312.254 97.8584 310.044 97.7561 307.733 96.8596C304.816 95.7279 302.743 93.7214 301.423 91.6359L300.729 90.5383L300.643 90.4025L299.986 90.3078C297.961 90.0131 295.954 89.3774 294.057 88.3439L292.082 87.2678C290.204 86.2441 288.599 84.9217 287.264 83.4162L287.014 83.1349L285.962 83.0949L284.718 83.0471C280.384 82.8787 276.565 80.7627 274.096 77.3488L273.595 77.2072L272.487 76.8908L271.466 76.3566L271.377 76.3107C265.875 73.4314 263.748 66.6356 266.627 61.133ZM233.593 4.3576C237.397 -0.551251 244.461 -1.44701 249.37 2.35663C251.901 4.31863 253.362 7.14849 253.665 10.1017L253.889 11.1183C254.318 13.0683 254.87 16.6408 253.518 20.3908C253.918 21.4432 254.241 22.5438 254.467 23.6896L254.689 24.8146L254.911 25.9387C255.486 28.8579 255.177 31.7431 254.183 34.3576L253.755 35.4816L253.599 35.8908L253.595 36.174L253.59 36.4094L253.713 36.758L254.108 37.882C254.932 40.2311 255.237 42.782 254.877 45.3908L254.722 46.5158L254.568 47.6398C254.228 50.1033 253.12 52.9135 250.706 55.1867C249.198 56.6064 247.554 57.4616 246.052 57.9738C244.423 60.7906 241.596 63.5606 237.27 64.5441L237.04 64.5959L236.835 64.8019C233.781 67.862 229.858 69.0294 226.206 68.8449C225.765 69.1693 225.325 69.4941 224.884 69.8176L223.048 71.1652C222.869 71.2969 222.678 71.4562 222.477 71.6516L221.634 72.4719L220.792 73.2912C218.269 75.7462 215.347 76.7721 212.638 76.9933C212.147 77.5541 211.587 78.1035 210.942 78.6174C208.729 80.3808 206.17 81.2517 203.685 81.4221C201.726 83.057 199.551 83.9678 197.409 84.3576C195.776 86.6651 193.248 88.8157 189.538 89.6721L187.276 90.1935C187.039 90.2482 186.833 90.3133 186.652 90.384L185.598 90.7951L184.545 91.2062C184.491 91.2274 184.445 91.2502 184.4 91.2785L182.486 92.4738C180.156 93.9278 177.684 94.5634 175.359 94.676C174.327 95.6901 173.144 96.604 171.801 97.3625L170.822 97.9162L169.842 98.4689C168.235 99.3768 166.571 99.9281 164.934 100.209C163.234 102.453 160.721 104.433 157.282 105.28L155.036 105.833C154.241 106.029 153.44 106.21 152.635 106.38C151.34 107.84 149.79 109.134 147.975 110.149L146.994 110.697L146.011 111.247C144.429 112.132 142.809 112.651 141.236 112.907C140.303 114.156 139.042 115.385 137.341 116.351C134.923 117.724 132.482 118.079 130.421 117.982C129.152 120.236 127.151 122.538 124.132 124.031L123.124 124.529L122.117 125.029C119.413 126.366 116.673 126.685 114.275 126.503C113.454 127.135 112.582 127.71 111.658 128.218L110.671 128.76L109.686 129.303C108.504 129.953 107.276 130.506 106.009 130.96L104.942 131.343L103.873 131.726C103.269 131.943 102.668 132.169 102.074 132.403L101.021 132.817L99.9692 133.23C99.3459 133.475 98.7163 133.705 98.0825 133.924C96.3719 136.787 93.5191 139.401 89.4624 140.426L89.4125 140.485C86.4938 143.831 82.4502 145.336 78.4653 145.198L78.3735 145.195C77.4614 145.821 76.5169 146.397 75.5366 146.915L74.5424 147.441L73.686 147.892L72.9038 148.569L72.0288 149.324C70.5273 150.622 68.8213 151.674 66.9409 152.429L65.893 152.85L64.8442 153.271C64.1272 153.558 63.4087 153.844 62.6899 154.128L61.6391 154.544L60.5883 154.959C60.0355 155.178 59.4884 155.407 58.9487 155.648L57.9204 156.106L57.0268 156.503L56.225 157.108L55.3129 157.793C54.6771 158.271 54.0393 158.746 53.3999 159.218L52.4838 159.895L51.5668 160.57C50.3852 161.442 49.1239 162.2 47.7905 162.834L45.7592 163.801C44.8869 164.216 44.0017 164.606 43.1059 164.971L42.061 165.397L41.0151 165.822C38.7406 166.748 36.4423 167.076 34.2944 167.029L33.7104 167.838C32.3274 169.748 30.4789 171.488 28.1118 172.736L27.1167 173.26L26.1225 173.784C24.2583 174.767 22.2928 175.375 20.311 175.661L19.4067 175.791L16.8334 177.121L16.7446 177.167C11.5136 179.869 5.14818 178.064 2.07173 173.168L1.93989 173.01L1.38228 171.931L1.27778 171.728C-1.25791 166.819 0.477051 162.188 2.20454 159.823C3.57572 157.947 5.18146 156.971 5.68989 156.668C6.94114 155.924 8.15104 155.516 8.64302 155.354L9.64497 155.024L10.6469 154.693C12.0126 154.242 13.3895 153.937 14.7446 153.741L15.9223 153.571L16.3129 153.515L16.9702 152.609L17.4252 152.005C18.5218 150.61 19.8554 149.316 21.4555 148.234L22.394 147.599L23.3315 146.965L23.8735 146.615C26.4156 145.054 29.1595 144.439 31.7211 144.445L32.268 144.454L33.5581 144.501L33.726 144.507L34.6254 144.141C35.1236 143.938 35.6142 143.722 36.0961 143.492L37.1127 143.009L38.1284 142.526C38.1494 142.516 38.1773 142.5 38.2172 142.471L39.1342 141.794L40.0502 141.118C40.6326 140.689 41.2141 140.256 41.7934 139.82L43.6157 138.449L44.1 138.096C45.2393 137.288 46.4562 136.592 47.7426 136.019L48.7709 135.561L49.8002 135.103C50.6321 134.732 51.4725 134.379 52.3208 134.044L53.3725 133.628L54.4233 133.213C55.1056 132.943 55.7877 132.672 56.4682 132.399L57.5161 131.978L57.8696 131.835L58.1987 131.552L59.0737 130.795C60.2823 129.751 61.6082 128.838 63.0444 128.079L65.0327 127.029C65.2634 126.907 65.4917 126.768 65.7182 126.608L66.6459 125.952L67.5727 125.297C70.0114 123.574 72.6947 122.792 75.2534 122.65C76.7176 121.308 78.4514 120.248 80.4028 119.568C82.0016 117.04 84.5181 114.689 88.0844 113.534L89.1694 113.183L90.2534 112.832C90.7582 112.669 91.2533 112.492 91.7377 112.301L93.8413 111.473C94.6486 111.155 95.4623 110.85 96.2807 110.557L97.3481 110.173L98.4155 109.79C98.5725 109.734 98.7144 109.669 98.8461 109.597L99.8315 109.055L100.601 108.631L101.309 107.979L102.165 107.188L102.498 106.889C105.597 104.204 109.275 103.394 112.494 103.608C113.551 101.786 115.058 99.9537 117.179 98.4973L118.113 97.8557L119.047 97.2141L119.403 96.9777C121.392 95.6986 123.459 95.0799 125.409 94.8771C126.137 94.0053 127.037 93.1588 128.147 92.4201C131.058 90.4833 134.198 90.0866 136.737 90.3635L136.763 90.3664L137.383 89.6574L137.782 89.218C139.815 87.0644 142.458 85.527 145.507 84.8937L146.65 84.6564L147.793 84.4191C147.872 84.4029 147.95 84.384 148.028 84.3674C148.954 82.8145 150.327 81.1897 152.317 79.9221C154.787 78.3487 157.444 77.8124 159.8 77.8801L160.149 77.8898L160.768 77.1144L161.053 76.7687C164.039 73.2619 168.284 71.7545 172.414 72.0402L172.718 72.0607C173.881 71.3531 175.1 70.7499 176.368 70.2551L177.421 69.8439L178.474 69.4328C178.895 69.2683 179.321 69.1161 179.748 68.9738C180.595 67.2453 181.999 65.272 184.306 63.7599C186.963 62.0183 189.781 61.5639 192.142 61.7062C193.489 60.7589 194.948 60.0776 196.457 59.6457C197.498 57.9943 199.078 56.2833 201.421 55.0822C204.074 53.723 206.682 53.544 208.766 53.7853C209.086 53.5278 209.411 53.2761 209.744 53.0324L210.662 52.3596L211.58 51.6857C212.183 51.2431 212.786 50.7992 213.388 50.3547L214.304 49.6779L215.22 49.0021L215.507 48.7951C218.132 46.9551 221.034 46.2234 223.735 46.2014C224.98 45.1811 226.376 44.3624 227.889 43.7775C228.715 42.253 229.842 40.8264 231.258 39.6506C231.132 38.7592 231.074 37.8469 231.089 36.9191L231.108 35.7941L231.127 34.6701L231.138 34.2697C231.218 32.277 231.636 30.3787 232.306 28.6154L232.439 28.2648L231.987 27.3137L231.454 26.1887C229.605 22.2954 229.695 17.9605 231.54 14.2062L231.438 13.7404L230.307 8.59784L233.532 4.43671L233.593 4.3576Z" fill="url(#paint0_linear_128_871)"/>
<defs>
<linearGradient id="paint0_linear_128_871" x1="241" y1="0.000183105" x2="241" y2="388.574" gradientUnits="userSpaceOnUse">
<stop stop-color="#A7A6CB"/>
<stop offset="1" stop-color="#DA7866"/>
</linearGradient>
</defs>
</svg>
